# xmcd
#
# Track frame offsets: 
#        150
#        14641
#        26736
#        38622
#        54469
#        69455
#        93130
#        112714
#        130581
#        146246
#        159386
#
# Disc length: 2133 seconds
#
# Revision: 0
# Processed by: cddbd v1.5.2PL0 Copyright (c) Steve Scherf et al.
# Submitted via: ExactAudioCopy v0.95a4
#
DISCID=8708530b
DTITLE=Scissormen - WHEN THE DEVIL CALLS alone and acoustic
DYEAR=2006
DGENRE=Blues
TTITLE0=When The Devil Calls
TTITLE1=Junior's Blues
TTITLE2=Brother
TTITLE3=Mattie Sweet Mattie
TTITLE4=Rollin' and Tumblin'
TTITLE5=Death Letter
TTITLE6=I Put A Spell on You
TTITLE7=Emergency Loverman
TTITLE8=Unwanted Man
TTITLE9=V-8 Ford
TTITLE10=That's Not Funny
EXTD=
EXTT0=
EXTT1=
EXTT2=
EXTT3=
EXTT4=
EXTT5=
EXTT6=
EXTT7=
EXTT8=
EXTT9=
EXTT10=
PLAYORDER=
